<svg width="614" height="614" viewBox="0 0 614 614" fill="none" xmlns="http://www.w3.org/2000/svg">
<path d="M525.507 101.925L229.985 421.627L601.627 250.582C590.881 193.269 564.015 142.224 525.507 101.925Z" fill="#69D2CD" stroke="#B9F1D6" stroke-width="13"/>
<path d="M306.104 7C264.91 7 226.403 15.0597 190.582 30.2836L151.179 364.313L349.09 10.5821C335.657 7.89552 321.328 7 306.104 7Z" fill="#69D2CD" stroke="#B9F1D6" stroke-width="13"/>
<path d="M604.313 268.493L252.373 465.507L582.821 426.105C598.045 389.388 607 349.985 607 307.896C607 294.463 606.104 281.03 604.313 268.493Z" fill="#69D2CD" stroke="#B9F1D6" stroke-width="13"/>
<path d="M474.463 556.851C513.866 529.985 546.105 494.164 569.388 452.97L260.433 513.866L474.463 556.851Z" fill="#69D2CD" stroke="#B9F1D6" stroke-width="13"/>
<path d="M367.896 13.2687L195.955 386.702L515.657 91.1791C474.463 52.6717 424.313 24.9105 367.896 13.2687Z" fill="#69D2CD" stroke="#B9F1D6" stroke-width="13"/>
<path d="M332.075 607C365.209 604.313 397.448 596.254 426.105 583.716L252.373 563.119L332.075 607Z" fill="#69D2CD" stroke="#B9F1D6" stroke-width="13"/>
<path d="M32.0747 184.313C18.6418 213.866 9.68657 247 7 281.03L53.5671 364.313L32.0747 184.313Z" fill="#69D2CD" stroke="#B9F1D6" stroke-width="13"/>
<path d="M164.612 41.9254C122.522 64.3134 85.806 97.4478 58.9403 136.851L102.821 356.254L164.612 41.9254Z" fill="#69D2CD" stroke="#B9F1D6" stroke-width="13"/>
</svg>
