<svg width="69" height="69" viewBox="0 0 69 69" fill="none" xmlns="http://www.w3.org/2000/svg">
<path d="M58.9 11.6L25.9 47.3L67.4 28.2C66.2 21.8 63.2 16.1 58.9 11.6Z" fill="#69D2CD" stroke="#B9F1D6" stroke-width="1.5"/>
<path d="M34.4 1C29.8 1 25.5 1.9 21.5 3.6L17.1 40.9L39.2 1.4C37.7 1.1 36.1 1 34.4 1Z" fill="#69D2CD" stroke="#B9F1D6" stroke-width="1.5"/>
<path d="M67.7 30.2L28.4 52.2L65.3 47.8C67 43.7 68 39.3 68 34.6C68 33.1 67.9 31.6 67.7 30.2Z" fill="#69D2CD" stroke="#B9F1D6" stroke-width="1.5"/>
<path d="M53.2 62.4C57.6 59.4 61.2 55.4 63.8 50.8L29.3 57.6L53.2 62.4Z" fill="#69D2CD" stroke="#B9F1D6" stroke-width="1.5"/>
<path d="M41.3 1.7L22.1 43.4L57.8 10.4C53.2 6.1 47.6 3 41.3 1.7Z" fill="#69D2CD" stroke="#B9F1D6" stroke-width="1.5"/>
<path d="M37.3 68C41 67.7 44.6 66.8 47.8 65.4L28.4 63.1L37.3 68Z" fill="#69D2CD" stroke="#B9F1D6" stroke-width="1.5"/>
<path d="M3.8 20.8C2.3 24.1 1.3 27.8 1 31.6L6.2 40.9L3.8 20.8Z" fill="#69D2CD" stroke="#B9F1D6" stroke-width="1.5"/>
<path d="M18.6 4.9C13.9 7.4 9.8 11.1 6.8 15.5L11.7 40L18.6 4.9Z" fill="#69D2CD" stroke="#B9F1D6" stroke-width="1.5"/>
</svg>
